HIERARCHY
ROOT joint_Root
{
	OFFSET 0.0 0.0 0.0
	CHANNELS 6 Xposition Yposition Zposition Zrotation Xrotation Yrotation 
	JOINT Hips
	{
		OFFSET -0.726466 93.3139 -2.00062
		CHANNELS 6 Xposition Yposition Zposition Zrotation Xrotation Yrotation 
		JOINT Spine
		{
			OFFSET 15.7357 0.0 0.0
			CHANNELS 6 Xposition Yposition Zposition Zrotation Xrotation Yrotation 
			JOINT Chest
			{
				OFFSET 8.98455 -0.406207 0.0
				CHANNELS 6 Xposition Yposition Zposition Zrotation Xrotation Yrotation 
				JOINT Neck
				{
					OFFSET 16.3773 0.0 0.0
					CHANNELS 6 Xposition Yposition Zposition Zrotation Xrotation Yrotation 
					JOINT Head
					{
						OFFSET 6.45672 0.0 0.0
						CHANNELS 6 Xposition Yposition Zposition Zrotation Xrotation Yrotation 
						End Site
						{
							OFFSET 0.0 0.0 0.0
						}
					}
				}
				JOINT Shoulder_L
				{
					OFFSET 12.9942 -0.242716 4.98039
					CHANNELS 6 Xposition Yposition Zposition Zrotation Xrotation Yrotation 
					JOINT UpperArm_L
					{
						OFFSET 5.34809 0.0 0.0
						CHANNELS 6 Xposition Yposition Zposition Zrotation Xrotation Yrotation 
						JOINT LowerArm_L
						{
							OFFSET 24.3286 1.87007e-05 0.0
							CHANNELS 6 Xposition Yposition Zposition Zrotation Xrotation Yrotation 
							JOINT Hand_L
							{
								OFFSET 22.2916 0.0 0.0
								CHANNELS 6 Xposition Yposition Zposition Zrotation Xrotation Yrotation 
								End Site
								{
									OFFSET 0.0 0.0 0.0
								}
							}
						}
					}
				}
				JOINT Shoulder_R
				{
					OFFSET 12.9945 -0.242716 -4.98039
					CHANNELS 6 Xposition Yposition Zposition Zrotation Xrotation Yrotation 
					JOINT UpperArm_R
					{
						OFFSET -5.34813 0.0 0.0
						CHANNELS 6 Xposition Yposition Zposition Zrotation Xrotation Yrotation 
						JOINT LowerArm_R
						{
							OFFSET -24.3289 0.000322201 0.0
							CHANNELS 6 Xposition Yposition Zposition Zrotation Xrotation Yrotation 
							JOINT Hand_R
							{
								OFFSET -22.2915 -0.000108084 0.0
								CHANNELS 6 Xposition Yposition Zposition Zrotation Xrotation Yrotation 
								End Site
								{
									OFFSET 0.0 0.0 0.0
								}
							}
						}
					}
				}
			}
		}
		JOINT UpperLeg_L
		{
			OFFSET -2.19248 -6.46944 0.0
			CHANNELS 6 Xposition Yposition Zposition Zrotation Xrotation Yrotation 
			JOINT LowerLeg_L
			{
				OFFSET 39.0811 0.0 -1.23785e-05
				CHANNELS 6 Xposition Yposition Zposition Zrotation Xrotation Yrotation 
				JOINT Foot_L
				{
					OFFSET 40.9854 0.0 -1.26872e-05
					CHANNELS 6 Xposition Yposition Zposition Zrotation Xrotation Yrotation 
					JOINT Toes_L
					{
						OFFSET 11.7543 0.0 0.0
						CHANNELS 6 Xposition Yposition Zposition Zrotation Xrotation Yrotation 
						End Site
						{
							OFFSET 0.0 0.0 0.0
						}
					}
				}
			}
		}
		JOINT UpperLeg_R
		{
			OFFSET -2.19251 6.46944 0.0
			CHANNELS 6 Xposition Yposition Zposition Zrotation Xrotation Yrotation 
			JOINT LowerLeg_R
			{
				OFFSET -39.0811 -0.00228153 -0.0401928
				CHANNELS 6 Xposition Yposition Zposition Zrotation Xrotation Yrotation 
				JOINT Foot_R
				{
					OFFSET -40.9854 0.0 0.0
					CHANNELS 6 Xposition Yposition Zposition Zrotation Xrotation Yrotation 
					JOINT Toes_R
					{
						OFFSET -11.7543 0.0 0.0
						CHANNELS 6 Xposition Yposition Zposition Zrotation Xrotation Yrotation 
						End Site
						{
							OFFSET 0.0 0.0 0.0
						}
					}
				}
			}
		}
	}
}
MOTION
Frames:	6
Frame Time:	0.0333333
0.000000 0.000000 0.000000 0.000000 0.000000 -0.000000 -0.644676 92.258900 0.321500 88.130100 -0.280241 4.626660 15.735700 0.000005 -0.000001 81.862800 86.493300 -81.252100 8.984550 -0.406207 -0.000000 -0.817473 -1.038230 1.213580 16.377300 -0.000001 -0.000001 4.420660 -2.705990 0.389529 6.456720 -0.000001 -0.000000 8.036920 -4.161170 -0.480720 12.994200 -0.242716 4.980390 -86.340900 -9.962910 -69.714100 5.348090 -0.000007 -0.000001 -86.475900 -23.935500 -101.674000 24.328600 0.000019 0.000005 11.153600 2.085950 -79.540300 22.291600 -0.000001 0.000005 20.354300 5.581230 -10.278200 12.994500 -0.242716 -4.980390 91.516100 -4.913600 -72.829100 -5.348130 -0.000001 -0.000004 -78.071100 -26.050700 -106.476000 -24.328900 0.000322 -0.000009 13.721100 5.005970 -70.336300 -22.291500 -0.000108 -0.000004 22.621200 5.424620 -3.755440 -2.192480 -6.469440 -0.000000 -175.192000 -8.445350 -1.375590 39.081100 -0.000007 -0.000012 -0.113178 0.271078 22.661100 40.985400 -0.000006 -0.000013 -0.094317 4.275550 -66.785800 11.754300 -0.000000 0.000003 -0.000049 -0.000561 -16.599300 -2.192510 6.469440 -0.000001 179.338000 15.471000 -178.478000 -39.081100 -0.002282 -0.040193 -0.026404 0.085811 19.107300 -40.985400 0.000008 0.000006 3.815690 7.576220 -66.473800 -11.754300 -0.000006 -0.000006 -0.007929 -0.087456 -20.134300
0.000000 0.000000 0.000000 0.000000 0.000000 -0.000000 -0.655519 92.249500 0.344388 88.119300 -0.330913 4.658240 15.735700 0.000005 -0.000001 82.236400 86.464100 -81.606700 8.984550 -0.406207 -0.000000 -0.753197 -1.001900 1.252140 16.377300 -0.000001 -0.000001 4.479920 -2.703150 0.368189 6.456720 -0.000001 -0.000000 8.043860 -4.235430 -0.491404 12.994200 -0.242716 4.980390 -86.332800 -9.937370 -69.625100 5.348090 -0.000007 -0.000001 -86.446000 -23.953600 -101.664000 24.328600 0.000019 0.000005 11.145100 2.093350 -79.496100 22.291600 -0.000001 0.000005 20.302100 5.579930 -10.208500 12.994500 -0.242716 -4.980390 91.501900 -4.866440 -72.824700 -5.348130 -0.000001 -0.000004 -77.652600 -26.115300 -106.353000 -24.328900 0.000322 -0.000009 13.834500 5.077560 -70.234200 -22.291500 -0.000108 -0.000004 22.742300 5.423950 -3.732730 -2.192480 -6.469440 -0.000000 -175.169000 -8.477230 -1.345440 39.081100 -0.000007 -0.000012 -0.112619 0.269014 22.716000 40.985400 -0.000006 -0.000013 -0.102414 4.250830 -66.834000 11.754300 -0.000000 0.000003 -0.000060 -0.000662 -16.603200 -2.192510 6.469440 -0.000001 179.333000 15.455300 -178.450000 -39.081100 -0.002282 -0.040193 -0.028317 0.091165 19.140100 -40.985400 0.000008 0.000006 3.727700 7.613290 -66.486300 -11.754300 -0.000006 -0.000006 -0.007878 -0.087034 -20.117100
0.000000 0.000000 0.000000 0.000000 0.000000 -0.000000 -0.643197 92.248400 0.366769 88.154800 -0.330660 4.686770 15.735700 0.000005 -0.000001 82.688700 86.435200 -82.051900 8.984550 -0.406207 -0.000000 -0.688779 -0.954100 1.267420 16.377300 -0.000001 -0.000001 4.467280 -2.685440 0.387685 6.456720 -0.000001 -0.000000 8.159610 -4.235870 -0.510797 12.994200 -0.242716 4.980390 -86.347400 -9.886420 -69.604600 5.348090 -0.000007 -0.000001 -86.271100 -24.077600 -101.526000 24.328600 0.000019 0.000005 10.933900 2.050210 -79.508400 22.291600 -0.000001 0.000005 20.380600 5.581050 -10.268100 12.994500 -0.242716 -4.980390 91.483700 -4.781640 -72.739100 -5.348130 -0.000001 -0.000004 -77.104000 -26.273000 -106.178000 -24.328900 0.000322 -0.000009 13.789800 5.038380 -70.313700 -22.291500 -0.000108 -0.000004 22.670500 5.421960 -3.665340 -2.192480 -6.469440 -0.000000 -175.197000 -8.523850 -1.277790 39.081100 -0.000007 -0.000012 -0.113660 0.271995 22.678800 40.985400 -0.000006 -0.000013 -0.084486 4.305160 -66.835700 11.754300 -0.000000 0.000003 -0.000046 -0.000527 -16.598000 -2.192510 6.469440 -0.000001 179.280000 15.436600 -178.413000 -39.081100 -0.002282 -0.040193 -0.027083 0.087421 19.178100 -40.985400 0.000008 0.000006 3.833500 7.605470 -66.547900 -11.754300 -0.000006 -0.000006 -0.008396 -0.091236 -20.288700
0.000000 0.000000 0.000000 0.000000 0.000000 -0.000000 -0.648767 92.254300 0.355818 88.158200 -0.302921 4.675050 15.735700 0.000005 -0.000001 82.854300 86.409500 -82.196000 8.984550 -0.406207 -0.000000 -0.635051 -0.941321 1.310750 16.377300 -0.000001 -0.000001 4.524010 -2.621640 0.367154 6.456720 -0.000001 -0.000000 8.179180 -4.165090 -0.541094 12.994200 -0.242716 4.980390 -86.357000 -9.824930 -69.538400 5.348090 -0.000007 -0.000001 -85.990500 -24.278300 -101.006000 24.328600 0.000019 0.000005 10.617900 1.918680 -79.874000 22.291600 -0.000001 0.000005 20.364600 5.581500 -10.293200 12.994500 -0.242716 -4.980390 91.444500 -4.617950 -72.609500 -5.348130 -0.000001 -0.000004 -76.225700 -26.525900 -105.817000 -24.328900 0.000322 -0.000009 13.881000 4.985020 -70.629000 -22.291500 -0.000108 -0.000004 22.790500 5.421350 -3.644580 -2.192480 -6.469440 -0.000000 -175.204000 -8.446680 -1.283230 39.081100 -0.000007 -0.000012 -0.114831 0.275323 22.639900 40.985400 -0.000006 -0.000013 -0.104764 4.258750 -66.805600 11.754300 -0.000000 0.000003 -0.000053 -0.000591 -16.600500 -2.192510 6.469440 -0.000001 179.286000 15.452900 -178.418000 -39.081100 -0.002282 -0.040193 -0.027122 0.087714 19.141500 -40.985400 0.000008 0.000006 3.819170 7.597640 -66.516800 -11.754300 -0.000006 -0.000006 -0.008030 -0.088281 -20.168000
0.000000 0.000000 0.000000 0.000000 0.000000 -0.000000 -0.639262 92.248700 0.345877 88.140700 -0.305957 4.611330 15.735700 0.000005 -0.000001 82.890700 86.382900 -82.176900 8.984550 -0.406207 -0.000000 -0.581085 -0.947115 1.422060 16.377300 -0.000001 -0.000001 4.421020 -2.504460 0.333191 6.456720 -0.000001 -0.000000 8.298370 -4.002850 -0.710301 12.994200 -0.242716 4.980390 -86.407800 -9.650970 -69.470700 5.348090 -0.000007 -0.000001 -85.293700 -24.780400 -99.619000 24.328600 0.000019 0.000005 9.980450 1.589760 -81.041500 22.291600 -0.000001 0.000005 20.338600 5.579830 -10.204000 12.994500 -0.242716 -4.980390 91.387800 -4.390960 -72.441300 -5.348130 -0.000001 -0.000004 -74.814100 -26.862500 -104.990000 -24.328900 0.000322 -0.000009 14.025500 4.811140 -71.442500 -22.291500 -0.000108 -0.000004 23.073600 5.415660 -3.453830 -2.192480 -6.469440 -0.000000 -175.198000 -8.517810 -1.401640 39.081100 -0.000007 -0.000012 -0.114179 0.272746 22.715700 40.985400 -0.000006 -0.000013 -0.078545 4.319330 -66.826900 11.754300 -0.000000 0.000003 -0.000046 -0.000523 -16.597900 -2.192510 6.469440 -0.000001 179.318000 15.422400 -178.514000 -39.081100 -0.002282 -0.040193 -0.028652 0.091950 19.174700 -40.985400 0.000008 0.000006 3.751230 7.586920 -66.508900 -11.754300 -0.000006 -0.000006 -0.008234 -0.089929 -20.235300
0.000000 0.000000 0.000000 0.000000 0.000000 -0.000000 -0.620019 92.255800 0.335845 88.182600 -0.308599 4.638940 15.735700 0.000005 -0.000001 83.170600 86.330300 -82.429500 8.984550 -0.406207 -0.000000 -0.472336 -0.925815 1.477620 16.377300 -0.000001 -0.000001 4.369690 -2.426320 0.351469 6.456720 -0.000001 -0.000000 8.274280 -3.803970 -0.932212 12.994200 -0.242716 4.980390 -86.524300 -9.320170 -69.442000 5.348090 -0.000007 -0.000001 -83.697000 -25.492400 -96.915500 24.328600 0.000019 0.000005 8.325250 1.002880 -83.183500 22.291600 -0.000001 0.000005 20.380600 5.578250 -10.118400 12.994500 -0.242716 -4.980390 91.307500 -4.057220 -72.120600 -5.348130 -0.000001 -0.000004 -72.791600 -27.197900 -103.125000 -24.328900 0.000322 -0.000009 13.845000 4.253510 -73.253500 -22.291500 -0.000108 -0.000004 23.126600 5.408570 -3.218230 -2.192480 -6.469440 -0.000000 -175.248000 -8.550940 -1.324090 39.081100 -0.000007 -0.000012 -0.112301 0.269404 22.628800 40.985400 -0.000006 -0.000013 -0.059758 4.344740 -66.791100 11.754300 -0.000000 0.000003 -0.000049 -0.000555 -16.599100 -2.192510 6.469440 -0.000001 179.260000 15.426800 -178.486000 -39.081100 -0.002282 -0.040193 -0.027721 0.089286 19.171900 -40.985400 0.000008 0.000006 3.799720 7.569670 -66.512300 -11.754300 -0.000006 -0.000006 -0.008078 -0.088669 -20.183800
